<svg width="9" height="10" viewBox="0 0 9 10" fill="none" xmlns="http://www.w3.org/2000/svg">
<path d="M5.78516 4.75L8.73828 1.82422C8.90234 1.66016 8.90234 1.35938 8.73828 1.19531L8.05469 0.511719C7.89062 0.347656 7.58984 0.347656 7.42578 0.511719L4.5 3.46484L1.54688 0.511719C1.38281 0.347656 1.08203 0.347656 0.917969 0.511719L0.234375 1.19531C0.0703125 1.35938 0.0703125 1.66016 0.234375 1.82422L3.1875 4.75L0.234375 7.70312C0.0703125 7.86719 0.0703125 8.16797 0.234375 8.33203L0.917969 9.01562C1.08203 9.17969 1.38281 9.17969 1.54688 9.01562L4.5 6.0625L7.42578 9.01562C7.58984 9.17969 7.89062 9.17969 8.05469 9.01562L8.73828 8.33203C8.90234 8.16797 8.90234 7.86719 8.73828 7.70312L5.78516 4.75Z" fill="#3F5767"/>
</svg>
